<?xml version="1.0" standalone="no"?>
<!DOCTYPE svg PUBLIC "-//W3C//DTD SVG 20010904//EN"
 "http://www.w3.org/TR/2001/REC-SVG-20010904/DTD/svg10.dtd">
<svg version="1.0" xmlns="http://www.w3.org/2000/svg"
 width="1024.000000pt" height="1024.000000pt" viewBox="0 0 1024.000000 1024.000000"
 preserveAspectRatio="xMidYMid meet">
<metadata>
Created by potrace 1.16, written by Peter Selinger 2001-2019
</metadata>
<g transform="translate(0.000000,1024.000000) scale(0.100000,-0.100000)"
fill="#000000" stroke="none">
<path d="M6120 7162 c-116 -8 -350 -72 -350 -95 0 -6 -3 -8 -6 -4 -7 6 -124
-49 -124 -58 0 -3 10 -1 23 5 21 11 21 10 3 -4 -10 -9 -23 -13 -28 -10 -9 6
-115 -69 -130 -90 -12 -17 -9 -38 4 -30 7 4 8 3 4 -5 -4 -6 -4 -17 1 -24 5 -7
15 -31 23 -54 7 -23 16 -40 20 -38 10 6 9 28 18 -405 5 -201 9 -301 10 -222 2
135 3 142 22 142 11 0 20 5 20 10 0 6 -6 10 -14 10 -7 0 -16 10 -20 23 -8 31
-7 94 2 80 11 -17 82 -22 82 -5 0 5 -13 7 -30 4 -30 -4 -30 -4 -30 46 0 28 -4
54 -10 57 -15 9 -12 25 5 25 8 0 15 -9 15 -20 0 -11 5 -20 10 -20 6 0 10 7 10
16 0 14 3 14 15 4 17 -14 20 -3 9 38 -7 26 -24 30 -24 5 0 -15 -2 -14 -19 3
-17 17 -17 20 -4 31 12 9 20 9 39 -3 13 -9 31 -14 41 -11 14 4 12 5 -5 6 -23
1 -27 26 -5 26 6 0 15 4 20 9 4 5 -8 6 -29 2 -41 -8 -48 -1 -20 21 15 12 12
13 -30 11 -28 -2 -48 1 -48 7 0 6 23 9 56 7 32 -2 61 1 67 7 16 16 4 22 -30
12 -17 -5 -36 -5 -44 0 -10 6 -6 9 14 9 15 0 27 5 27 10 0 6 -20 10 -44 10
-33 0 -46 5 -51 18 -5 14 -4 15 6 5 25 -25 169 -10 169 18 0 4 -12 1 -27 -7
-32 -16 -73 -19 -73 -4 0 6 9 10 20 10 11 0 20 4 20 9 0 5 9 11 21 14 12 3 18
10 14 17 -5 8 -14 6 -31 -5 l-25 -16 5 38 c3 21 3 29 0 18 -8 -27 -34 -55 -51
-55 -26 0 -12 45 27 89 41 45 70 50 70 11 0 -11 4 -20 9 -20 13 0 20 49 7 54
-7 3 -7 5 2 5 20 2 14 18 -10 24 -12 4 -19 9 -16 12 3 4 15 2 26 -4 25 -13 85
-15 78 -2 -3 4 -29 12 -58 16 -41 5 -49 9 -33 15 17 7 17 9 3 9 -24 1 -23 13
3 30 19 11 21 11 16 -3 -12 -31 3 -46 47 -45 34 1 37 2 16 8 l-25 7 30 6 c34
7 53 0 34 -13 -16 -10 -1 -11 22 -1 15 6 16 10 2 45 -15 36 -16 37 -68 37 -30
0 -57 5 -61 12 -4 7 -3 8 4 4 6 -4 22 0 36 9 15 10 27 12 30 6 4 -5 -3 -12
-14 -14 -18 -4 -18 -5 2 -5 47 0 56 -3 84 -27 46 -40 53 -45 64 -45 5 0 10 5
10 10 0 6 -7 10 -15 10 -19 0 -20 19 -1 26 8 3 12 12 10 19 -7 18 36 31 47 14
12 -20 29 31 17 54 -5 9 -6 18 -3 18 18 5 72 9 150 12 50 2 60 2 23 0 -38 -2
-68 -8 -68 -13 0 -6 5 -10 10 -10 6 0 10 -12 10 -26 0 -22 2 -25 15 -14 18 15
20 39 3 41 -7 1 23 5 67 9 47 5 81 4 83 -1 2 -5 10 -9 18 -9 9 0 12 5 9 10 -9
15 23 12 110 -10 79 -20 120 -21 48 -1 -120 34 -275 51 -383 43z"/>
<path d="M3837 7144 c-89 -19 -237 -73 -237 -86 0 -5 -4 -7 -9 -4 -22 14 -262
-147 -260 -173 2 -17 -15 -50 -23 -45 -5 3 -2 14 8 25 9 10 13 19 7 19 -15 0
-136 -132 -194 -210 -32 -44 -40 -65 -45 -113 -2 -21 -9 -47 -14 -58 -7 -13
-7 -19 0 -19 5 0 10 4 10 10 0 5 7 7 16 3 14 -5 15 -3 5 15 -6 11 -9 27 -7 34
2 7 7 26 10 41 6 25 26 30 26 6 0 -6 -4 -7 -10 -4 -6 4 -9 -9 -9 -32 1 -21 4
-29 6 -17 3 16 10 20 27 17 13 -3 26 0 30 5 4 6 -3 8 -16 6 -13 -2 -17 -2 -10
2 17 8 15 31 -4 38 -8 3 -12 11 -8 17 5 9 11 7 19 -4 16 -22 32 -22 38 1 4 16
5 16 6 0 0 -10 6 -18 11 -18 14 0 9 31 -7 48 -7 7 -10 19 -6 27 3 9 0 21 -5
28 -7 8 -7 18 -2 27 6 8 10 11 11 5 1 -5 2 -14 4 -20 1 -5 3 -17 4 -25 1 -10
9 -6 26 15 19 23 27 27 37 17 16 -16 49 -16 42 1 -2 7 4 23 15 36 25 29 17 51
-18 50 -17 -1 -20 -3 -8 -6 9 -2 17 -11 17 -19 0 -20 -13 -17 -28 6 -7 12 -17
18 -21 15 -13 -7 -1 -45 12 -42 6 1 13 -8 15 -20 4 -26 -13 -31 -25 -8 -8 13
-12 13 -29 -4 -20 -18 -21 -18 -33 1 -11 17 -10 19 7 14 24 -8 49 18 35 37 -7
8 -4 18 9 30 12 11 18 13 18 5 0 -8 3 -9 8 -3 4 6 20 10 35 10 20 -1 26 3 22
13 -9 25 6 34 30 18 21 -14 35 -12 35 5 0 8 -40 24 -52 21 -5 -1 -8 3 -8 9 0
6 7 9 14 6 9 -4 14 -1 12 6 -1 7 -1 9 1 5 3 -5 12 -8 21 -8 15 0 15 -2 2 -11
-13 -9 -12 -10 3 -5 9 3 17 1 17 -4 0 -6 5 -10 12 -10 6 0 9 3 5 6 -3 4 0 19
9 35 8 17 10 29 4 29 -5 0 -10 -8 -10 -17 0 -14 -2 -15 -12 -4 -11 10 -9 16 9
30 12 10 19 21 16 25 -10 10 6 7 29 -5 12 -7 18 -7 14 -1 -3 6 12 25 34 42 22
17 40 27 40 21 0 -6 -11 -16 -24 -23 -14 -6 -27 -17 -30 -25 -4 -10 6 -8 33 8
22 12 42 31 45 42 3 13 10 18 20 14 10 -4 16 -1 16 8 0 8 5 15 10 15 6 0 10
-4 10 -10 0 -5 9 -10 21 -10 11 0 17 -4 14 -10 -9 -14 5 -12 35 5 l25 14 -25
2 c-14 1 -32 2 -42 3 -9 1 -20 5 -25 10 -5 5 -1 7 9 3 10 -3 20 -2 23 2 7 13
65 31 65 21 0 -4 -12 -13 -27 -18 -25 -9 -25 -11 -6 -11 12 -1 28 7 35 17 21
27 59 43 118 47 30 2 93 7 140 11 50 4 100 2 123 -4 25 -7 35 -7 31 0 -4 6 1
8 12 5 11 -3 39 -8 64 -11 41 -5 42 -5 15 5 -51 19 -340 21 -418 3z"/>
<path d="M6626 5705 c4 -11 15 -54 24 -95 14 -64 15 -84 4 -141 -7 -36 -19
-83 -28 -103 -9 -21 -14 -42 -11 -46 3 -5 2 -10 -3 -12 -4 -1 -23 -23 -41 -47
-19 -24 -56 -60 -82 -81 -26 -21 -46 -40 -44 -42 2 -2 -4 -4 -13 -5 -9 -1 -37
-9 -62 -19 -40 -17 -83 -19 -417 -22 l-371 -3 -5 -362 c-3 -248 -8 -375 -17
-402 -7 -22 -13 -50 -14 -62 0 -11 -4 -19 -8 -17 -3 2 -17 -15 -31 -38 -14
-24 -39 -56 -56 -72 -17 -16 -28 -34 -24 -39 3 -6 2 -7 -4 -4 -5 3 -27 -5 -48
-20 -62 -42 -141 -65 -230 -66 -100 -1 -165 5 -165 16 0 4 -3 6 -8 4 -4 -3
-24 3 -45 13 -40 20 -46 18 -22 -6 8 -9 19 -13 25 -9 5 3 18 -3 30 -15 11 -11
24 -20 29 -20 5 0 16 -11 25 -25 23 -35 13 -31 -35 15 -23 22 -44 38 -47 36
-6 -7 85 -97 95 -94 11 4 83 -44 83 -54 0 -13 -18 -9 -27 5 -11 16 -53 52 -53
44 0 -14 73 -76 83 -70 5 3 7 1 4 -4 -6 -10 15 -38 62 -78 12 -11 22 -15 21
-10 -4 20 0 35 11 35 6 0 7 -5 2 -12 -15 -25 -11 -43 13 -61 29 -21 44 -15 44
19 0 20 5 24 28 23 23 -2 24 -2 5 -6 -14 -3 -23 -12 -23 -23 0 -14 10 -20 40
-25 22 -4 40 -10 40 -15 0 -10 41 -21 52 -14 5 3 1 12 -9 20 -21 16 -10 18 18
4 10 -6 19 -17 19 -25 0 -8 5 -15 10 -15 13 0 13 3 -2 35 -6 14 -15 25 -20 25
-4 0 -8 6 -8 14 0 8 -11 17 -25 20 -24 6 -36 36 -15 36 6 0 10 -7 10 -15 0 -8
5 -15 10 -15 6 0 10 8 10 19 0 10 7 25 17 32 15 13 16 11 9 -14 -4 -16 -4 -38
0 -50 6 -20 7 -20 20 -3 9 13 21 17 39 14 20 -4 23 -3 14 8 -6 7 -18 12 -27
11 -10 -1 -18 3 -19 8 -2 6 6 10 16 10 25 0 35 11 27 30 -4 12 -10 14 -25 5
-13 -7 -22 -7 -26 0 -3 5 3 10 14 10 10 0 22 6 24 13 4 9 7 9 14 -1 6 -8 20
-10 41 -6 26 5 30 9 21 20 -8 10 -8 14 0 14 6 0 11 5 11 11 0 11 -35 8 -72 -6
-12 -5 -18 -2 -18 8 0 13 10 16 68 19 9 0 32 -3 50 -7 21 -5 32 -4 32 4 0 6
-8 11 -17 11 -13 0 -14 3 -5 12 16 16 15 28 -3 28 -8 0 -15 -6 -15 -12 0 -9
-17 -13 -50 -13 -27 0 -45 2 -40 3 16 6 12 20 -7 25 -10 3 3 3 28 0 34 -4 50
-1 62 11 13 14 21 15 38 6 23 -13 31 -10 21 7 -9 14 -96 19 -132 9 -24 -8 -24
-7 -5 7 11 8 23 13 27 11 4 -3 12 5 18 16 13 24 35 26 44 5 6 -17 42 -20 51
-5 11 19 25 10 25 -16 0 -14 4 -23 10 -19 6 3 10 24 10 46 0 29 4 39 16 39 17
0 14 22 -4 28 -7 2 -12 -4 -12 -13 0 -12 -5 -15 -16 -11 -9 3 -22 6 -30 6 -26
0 -14 17 16 24 21 4 30 11 30 26 0 11 5 20 10 20 6 0 10 11 10 25 0 22 3 24
19 16 17 -10 18 -9 7 14 -6 14 -14 25 -18 25 -5 0 -8 18 -8 40 0 30 4 40 16
40 10 0 14 6 11 14 -3 7 0 19 6 25 8 8 8 14 0 22 -17 17 -34 1 -27 -27 4 -14
2 -24 -5 -24 -6 0 -11 16 -11 35 0 29 4 35 21 35 38 0 67 -51 37 -63 -10 -4
-9 -8 2 -17 11 -9 12 -13 3 -17 -7 -2 -13 -12 -13 -21 0 -13 4 -11 16 6 8 12
12 27 9 33 -4 6 1 17 11 25 17 12 17 16 4 27 -39 33 -52 92 -22 100 16 4 16 5
0 6 -10 0 -18 6 -18 11 0 7 -6 7 -19 0 -11 -5 -27 -10 -37 -10 -13 0 -14 3 -4
15 6 8 9 19 6 24 -4 5 -2 12 4 16 5 3 10 -1 10 -9 0 -9 9 -16 20 -16 11 0 20
5 20 12 0 9 3 9 12 0 18 -18 28 -15 37 11 6 16 4 27 -8 41 -12 14 -13 20 -3
23 6 3 12 11 12 18 0 7 -6 16 -12 19 -13 6 28 -3 48 -11 6 -2 14 3 17 11 5 11
-3 17 -29 22 -25 5 -32 9 -23 15 8 4 24 6 35 3 12 -3 25 0 29 6 9 15 2 21 -37
31 -27 6 -21 7 29 6 43 -1 63 -6 63 -14 0 -18 19 -16 27 3 3 9 13 14 23 11 10
-2 24 -1 31 4 14 8 14 8 -37 24 -25 8 -10 30 19 28 19 -1 27 4 32 24 7 31 8
30 -41 43 l-39 10 40 -6 c22 -4 54 -8 71 -9 34 -2 54 -11 54 -24 0 -5 -6 -9
-12 -8 -31 1 -48 -4 -48 -13 0 -7 7 -7 18 -2 9 5 32 8 49 7 18 -2 30 1 27 6
-6 11 63 79 82 79 8 0 14 9 14 20 0 17 7 20 40 20 33 0 40 3 40 19 0 12 -8 21
-22 24 l-23 4 22 2 c13 0 28 -8 35 -19 17 -27 28 -25 28 5 0 15 -6 25 -14 25
-20 0 -70 20 -64 25 2 2 22 7 44 11 21 3 46 10 55 15 21 11 29 2 29 -32 0 -15
4 -30 9 -33 5 -4 7 2 4 13 -3 10 0 22 6 25 8 5 8 13 1 27 -12 22 -6 39 15 39
8 0 21 10 29 22 9 12 16 17 16 10 0 -6 7 -12 15 -12 10 0 14 9 13 25 -3 27 -8
31 -24 15 -8 -8 -15 -5 -25 7 -13 16 -12 17 2 5 13 -10 19 -9 29 3 10 12 16
13 27 4 11 -10 11 -14 1 -20 -9 -6 -6 -8 7 -7 17 2 20 9 20 44 0 23 -4 40 -9
37 -5 -4 -6 -1 -2 6 4 6 10 9 14 7 7 -4 33 19 32 29 -1 21 1 25 11 25 8 0 8
-4 0 -14 -9 -10 -9 -16 -1 -21 17 -11 43 3 36 20 -3 8 -1 17 4 20 6 4 10 -1
10 -9 0 -9 5 -16 10 -16 6 0 10 7 10 15 0 21 -30 31 -40 14 -17 -27 -19 -2 -3
34 16 34 43 51 43 27 0 -5 -7 -10 -15 -10 -8 0 -15 -4 -15 -10 0 -13 37 -13
45 0 4 6 10 8 15 5 5 -3 11 -1 15 5 3 6 -2 13 -12 17 -10 3 -25 13 -34 22 -15
14 -15 19 -1 46 8 17 17 24 19 18 10 -28 19 -11 17 30 -3 62 -6 67 -14 22 -6
-33 -7 -28 -8 33 0 40 3 70 8 67 5 -3 8 8 7 25 -1 16 -6 30 -11 30 -4 0 -6 -9
-3 -20 8 -31 -10 -24 -19 8 -4 15 -8 32 -9 38 0 6 -8 22 -18 35 -15 19 -17 20
-11 4z"/>
<path d="M3837 5109 c26 -28 46 -39 68 -40 29 -1 29 -1 5 -9 -24 -8 -24 -8 -2
-9 12 -1 22 -6 22 -12 0 -5 -6 -7 -12 -3 -7 3 4 -10 24 -30 22 -22 43 -34 50
-30 6 4 8 3 5 -3 -8 -13 58 -77 72 -69 17 11 13 24 -6 22 -20 -1 -25 26 -5 30
7 1 8 0 2 -3 -18 -9 -10 -20 14 -20 14 0 27 6 30 13 3 8 1 14 -4 14 -6 0 -10
5 -10 10 0 6 8 5 19 -2 19 -12 21 -31 6 -75 -8 -26 -15 -28 -35 -10 -12 10
-12 9 0 -6 23 -31 45 -38 48 -16 4 44 6 49 19 49 7 0 13 -4 13 -10 0 -13 37
-13 45 0 4 6 1 17 -5 25 -10 13 -8 15 14 15 16 0 26 -5 26 -15 0 -11 11 -15
39 -15 23 0 46 -7 56 -16 9 -9 19 -13 23 -9 4 4 1 10 -5 12 -17 6 -17 33 0 33
7 0 18 -10 26 -22 12 -19 11 -24 -8 -39 -13 -11 -17 -20 -11 -24 6 -3 13 1 16
10 4 10 13 13 25 10 11 -4 19 -2 19 4 0 6 -4 11 -10 11 -5 0 -10 14 -10 30 0
28 2 30 39 30 34 0 42 5 61 36 14 22 28 33 36 30 8 -3 30 3 49 14 45 25 58 25
50 0 -3 -11 1 -34 9 -52 11 -24 16 -74 19 -183 2 -118 3 -102 5 77 l2 227
-372 3 -373 3 -62 26 -62 26 36 -38z"/>
<path d="M6682 3857 c-177 -177 -354 -353 -394 -392 -103 -99 -149 -151 -120
-136 12 6 22 17 22 24 0 8 4 7 10 -3 5 -8 12 -11 17 -7 4 5 1 12 -6 16 -11 7
-9 11 7 20 18 10 20 9 17 -9 -2 -11 0 -18 5 -15 4 3 7 15 6 28 -2 23 29 63 39
48 2 -5 -2 -14 -10 -21 -22 -18 -19 -27 14 -38 26 -9 28 -8 24 9 -5 16 -8 17
-21 7 -17 -14 -17 -15 3 35 4 10 3 17 -5 17 -6 0 -8 5 -5 10 4 6 11 8 16 4 5
-3 9 -2 8 3 -4 20 2 27 12 13 10 -13 10 -13 7 0 -5 16 26 52 36 43 8 -8 37 18
31 27 -3 5 6 20 20 34 14 14 25 19 25 13 0 -7 -5 -18 -12 -25 -9 -9 -9 -12 -1
-12 12 0 26 31 21 48 -2 5 16 28 40 51 37 36 46 41 60 29 9 -7 14 -8 10 -4 -4
5 -2 16 5 24 9 13 9 14 0 8 -28 -16 -10 7 53 72 37 37 74 67 83 67 9 0 16 7
16 15 0 23 52 73 66 64 7 -4 9 -3 6 2 -3 6 -2 16 4 24 7 13 9 13 9 0 0 -8 8 0
17 18 12 25 18 30 25 20 7 -10 8 -8 4 5 -6 19 4 23 21 6 7 -7 13 -7 17 -1 3 6
2 13 -4 17 -5 3 -10 11 -10 16 0 6 4 8 8 5 5 -3 15 5 22 19 7 13 18 22 24 21
6 -2 7 -1 3 2 -4 2 13 24 39 48 25 24 49 42 54 39 5 -3 11 -2 14 3 2 4 -3 8
-13 9 -10 1 -144 -125 -339 -320z"/>
</g>
</svg>
